<svg width="1280" height="832" viewBox="0 0 1280 832" fill="none" xmlns="http://www.w3.org/2000/svg">
<g clip-path="url(#clip0_2005_450)">
<rect width="1280" height="832" fill="white"/>
<g filter="url(#filter0_d_2005_450)">
<path fill-rule="evenodd" clip-rule="evenodd" d="M972.224 -111.172C1002.86 -153.25 1052.84 -187.74 1117.63 -174.269C1178.32 -161.652 1218.7 -95.4521 1268.47 -49.5781C1310.83 -10.5461 1362.53 21.5471 1382.64 69.9478C1405.37 124.666 1403.31 178.472 1380.34 219.712C1354 267.006 1316.08 319.562 1249.56 308.883C1179.53 305.374 1091.72 191.289 1074.35 148.444C1033.81 71.9927 936.372 53.0339 918.033 20.9521C884.16 -32.8911 942.682 -70.5937 972.224 -111.172Z" fill="#131939" shape-rendering="crispEdges"/>
<path fill-rule="evenodd" clip-rule="evenodd" d="M562.61 -112.918C633.906 -188.025 741.385 -243.207 865.632 -200.023C982.013 -159.574 1044.47 -18.6852 1130.73 84.5384C1204.12 172.366 1297.74 248.911 1324.84 349.503C1355.48 463.226 1337.48 568.788 1281.51 644.211C1217.33 730.704 1128.96 824.602 1000.58 786.48C863.418 761.593 719.842 514.116 696.71 425.182C636.585 264.037 449.388 201.655 421.542 133.693C368.709 18.837 493.855 -40.4879 562.61 -112.918Z" fill="#131939" fill-opacity="0.7" shape-rendering="crispEdges"/>
<path fill-rule="evenodd" clip-rule="evenodd" d="M569.396 -22.9785C595.96 -115.505 659.463 -207.706 776.107 -227.149C885.367 -245.361 992.168 -158.048 1102.75 -111.88C1196.84 -72.599 1302.51 -51.4008 1364.8 18.629C1435.22 97.8002 1463.52 191.705 1449.32 277.75C1433.03 376.424 1400.43 491.763 1282.54 517.144C1162.98 557.17 948.336 418.691 893.926 356.413C780.799 251.574 606.141 283.051 556.443 239.929C467.845 169.593 543.778 66.2497 569.396 -22.9785Z" fill="#131939" fill-opacity="0.8" shape-rendering="crispEdges"/>
</g>
<g filter="url(#filter1_d_2005_450)">
<path fill-rule="evenodd" clip-rule="evenodd" d="M600.553 593.589C631.221 504.005 692.968 414.239 792.947 393.924C886.596 374.896 968.715 457.663 1057.71 500.701C1133.42 537.32 1220.52 556.344 1266.7 623.042C1318.91 698.446 1334.32 788.623 1314.65 871.791C1292.09 967.165 1254.3 1078.83 1152.73 1104.89C1048.45 1145.09 880.096 1014.43 839.856 955.101C753.981 855.517 604.064 888.215 566.075 847.297C497.765 780.657 570.979 679.98 600.553 593.589Z" fill="#131939" fill-opacity="0.9" shape-rendering="crispEdges"/>
<path fill-rule="evenodd" clip-rule="evenodd" d="M1074.7 631.839C1121.3 702.745 1150.96 795.761 1110.45 877.715C1072.51 954.481 968.805 967.187 889.465 1006.57C821.958 1040.09 760.661 1091.32 688.072 1087.4C606.007 1082.97 533.687 1044.37 485.593 984.77C430.441 916.426 372.119 828.348 409.433 742.118C438.223 646.195 623.192 598.721 687.3 602.801C804.973 596.668 864.134 472.551 913.969 468.116C998.669 456.333 1029.76 563.46 1074.7 631.839Z" fill="#131939" fill-opacity="0.9" shape-rendering="crispEdges"/>
</g>
</g>
<defs>
<filter id="filter0_d_2005_450" x="404.872" y="-229.61" width="1052.01" height="1032.82" filterUnits="userSpaceOnUse" color-interpolation-filters="sRGB">
<feFlood flood-opacity="0" result="BackgroundImageFix"/>
<feColorMatrix in="SourceAlpha" type="matrix" values="0 0 0 0 0 0 0 0 0 0 0 0 0 0 0 0 0 0 127 0" result="hardAlpha"/>
<feOffset dy="4"/>
<feGaussianBlur stdDeviation="2"/>
<feComposite in2="hardAlpha" operator="out"/>
<feColorMatrix type="matrix" values="0 0 0 0 0 0 0 0 0 0 0 0 0 0 0 0 0 0 0.25 0"/>
<feBlend mode="normal" in2="BackgroundImageFix" result="effect1_dropShadow_2005_450"/>
<feBlend mode="normal" in="SourceGraphic" in2="effect1_dropShadow_2005_450" result="shape"/>
</filter>
<filter id="filter1_d_2005_450" x="389.64" y="387.128" width="941.246" height="737.308" filterUnits="userSpaceOnUse" color-interpolation-filters="sRGB">
<feFlood flood-opacity="0" result="BackgroundImageFix"/>
<feColorMatrix in="SourceAlpha" type="matrix" values="0 0 0 0 0 0 0 0 0 0 0 0 0 0 0 0 0 0 127 0" result="hardAlpha"/>
<feOffset dy="4"/>
<feGaussianBlur stdDeviation="4"/>
<feComposite in2="hardAlpha" operator="out"/>
<feColorMatrix type="matrix" values="0 0 0 0 0 0 0 0 0 0 0 0 0 0 0 0 0 0 0.25 0"/>
<feBlend mode="normal" in2="BackgroundImageFix" result="effect1_dropShadow_2005_450"/>
<feBlend mode="normal" in="SourceGraphic" in2="effect1_dropShadow_2005_450" result="shape"/>
</filter>
<clipPath id="clip0_2005_450">
<rect width="1280" height="832" fill="white"/>
</clipPath>
</defs>
</svg>
